<svg width="308" height="307" xmlns="http://www.w3.org/2000/svg" xmlns:xlink="http://www.w3.org/1999/xlink" overflow="hidden"><defs><clipPath id="clip0"><rect x="790" y="182" width="308" height="307"/></clipPath></defs><g clip-path="url(#clip0)" transform="translate(-790 -182)"><path d="M137.51 31.9792 47.9688 31.9792C40.9042 31.9792 35.1771 37.7063 35.1771 44.7708L35.1771 134.312C35.1771 141.377 40.9042 147.104 47.9688 147.104L137.51 147.104C144.575 147.104 150.302 141.377 150.302 134.312L150.302 44.7708C150.302 37.7063 144.575 31.9792 137.51 31.9792ZM70.3542 131.115C65.0555 131.115 60.7604 126.819 60.7604 121.521 60.7604 116.222 65.0555 111.927 70.3542 111.927 75.6528 111.927 79.9479 116.222 79.9479 121.521 79.9479 126.819 75.6528 131.115 70.3542 131.115ZM70.3542 99.1354C65.0555 99.1354 60.7604 94.8403 60.7604 89.5417 60.7604 84.243 65.0555 79.9479 70.3542 79.9479 75.6528 79.9479 79.9479 84.243 79.9479 89.5417 79.9479 94.8403 75.6528 99.1354 70.3542 99.1354ZM70.3542 67.1562C65.0555 67.1562 60.7604 62.8611 60.7604 57.5625 60.7604 52.2639 65.0555 47.9688 70.3542 47.9688 75.6528 47.9688 79.9479 52.2639 79.9479 57.5625 79.9479 62.8611 75.6528 67.1562 70.3542 67.1562ZM115.125 131.115C109.826 131.115 105.531 126.819 105.531 121.521 105.531 116.222 109.826 111.927 115.125 111.927 120.424 111.927 124.719 116.222 124.719 121.521 124.719 126.819 120.424 131.115 115.125 131.115ZM115.125 99.1354C109.826 99.1354 105.531 94.8403 105.531 89.5417 105.531 84.243 109.826 79.9479 115.125 79.9479 120.424 79.9479 124.719 84.243 124.719 89.5417 124.719 94.8403 120.424 99.1354 115.125 99.1354ZM115.125 67.1562C109.826 67.1562 105.531 62.8611 105.531 57.5625 105.531 52.2639 109.826 47.9688 115.125 47.9688 120.424 47.9688 124.719 52.2639 124.719 57.5625 124.719 62.8611 120.424 67.1562 115.125 67.1562Z" fill="#FFFFFF" transform="matrix(1.00326 0 0 1 790 182)"/><path d="M267.442 189.221 204.123 125.902C199.13 120.904 191.031 120.899 186.033 125.892 186.03 125.895 186.026 125.898 186.023 125.902L122.704 189.221C117.706 194.213 117.701 202.313 122.694 207.311 122.697 207.314 122.701 207.317 122.704 207.321L186.023 270.64C191.015 275.638 199.115 275.643 204.113 270.65 204.116 270.646 204.12 270.643 204.123 270.64L267.442 207.321C272.44 202.328 272.445 194.229 267.452 189.231 267.449 189.227 267.445 189.224 267.442 189.221ZM195.073 153.052C198.817 149.303 204.891 149.3 208.64 153.044 212.389 156.788 212.393 162.863 208.649 166.611 204.905 170.36 198.83 170.364 195.081 166.62 195.079 166.617 195.076 166.614 195.073 166.611 191.332 162.866 191.332 156.798 195.073 153.052ZM163.414 211.83C159.669 215.579 153.595 215.583 149.846 211.838 146.097 208.094 146.093 202.02 149.837 198.271 153.582 194.522 159.656 194.518 163.405 198.263 163.408 198.265 163.411 198.268 163.414 198.271 167.154 202.017 167.154 208.084 163.414 211.83ZM172.464 175.662C176.208 171.913 182.282 171.909 186.031 175.653 189.78 179.397 189.784 185.472 186.04 189.221 182.295 192.97 176.221 192.973 172.472 189.229 172.469 189.226 172.467 189.224 172.464 189.221 168.723 185.475 168.723 179.407 172.464 175.662ZM195.073 243.489C191.329 247.238 185.254 247.242 181.505 243.498 177.757 239.754 177.753 233.679 181.497 229.93 185.241 226.181 191.316 226.177 195.065 229.922 195.067 229.924 195.07 229.927 195.073 229.93 198.814 233.676 198.814 239.744 195.073 243.489ZM217.682 220.88C213.938 224.629 207.864 224.633 204.115 220.888 200.366 217.144 200.362 211.07 204.106 207.321 207.851 203.572 213.925 203.568 217.674 207.313 217.676 207.315 217.679 207.318 217.682 207.321 221.423 211.067 221.423 217.134 217.682 220.88ZM240.291 198.271C236.547 202.02 230.473 202.024 226.724 198.279 222.975 194.535 222.971 188.461 226.715 184.712 230.46 180.963 236.534 180.959 240.283 184.703 240.286 184.706 240.289 184.709 240.291 184.712 244.032 188.457 244.032 194.525 240.291 198.271Z" fill="#FFFFFF" transform="matrix(1.00326 0 0 1 790 182)"/></g></svg>